<svg preserveAspectRatio="none" overflow="visible" style="display: block;" width="132.457" height="32.0005" viewBox="0 0 132.457 32.0005" fill="none" xmlns="http://www.w3.org/2000/svg">
<g id="Group 1597882171">
<path id="Vector" fill-rule="evenodd" clip-rule="evenodd" d="M40.3607 31.9996L31.5195 17.2581L40.2411 2.45605L49.0823 17.1996L40.3607 31.9996Z" fill="#F20D28"/>
<path id="Vector_2" opacity="0.1" fill-rule="evenodd" clip-rule="evenodd" d="M49.0814 17.2006L40.3599 32.0005L40.2402 2.45703L49.0814 17.2006Z" fill="black"/>
<path id="Vector_3" fill-rule="evenodd" clip-rule="evenodd" d="M40.2411 2.45605L32.8185 16.9427L40.3607 31.9996L31.5195 17.2581L40.2411 2.45605Z" fill="#FF88A2"/>
<path id="Vector_4" opacity="0.1" fill-rule="evenodd" clip-rule="evenodd" d="M40.2402 2.45703L47.9021 16.9437L40.3599 32.0005L49.2011 17.2591L40.2402 2.45703Z" fill="black"/>
<path id="Vector_5" d="M0.474618 27.6101C0.158436 26.7955 0.000343449 25.4943 0.000343449 23.7065C-0.0131163 21.1522 0.369116 18.6112 1.13357 16.1728C1.27165 15.6477 1.59207 15.1882 2.03804 14.8758C2.45775 14.5973 3.04534 14.4581 3.80082 14.4581C4.09459 14.4359 4.3892 14.4884 4.65703 14.6105C4.74582 14.6771 4.81532 14.7659 4.85844 14.8679C4.90157 14.9699 4.91679 15.0814 4.90256 15.1912C4.90256 15.517 4.74937 16.2487 4.44298 17.3863C4.23872 18.2009 4.07573 18.9124 3.95402 19.5209C3.81084 20.2681 3.70855 21.0225 3.64763 21.7808C4.19948 20.2589 4.96234 18.8212 5.91406 17.5095C6.75348 16.4137 7.57611 15.6312 8.38196 15.1619C9.1878 14.6927 9.92789 14.4623 10.6022 14.4706C11.9313 14.4706 12.5951 15.1313 12.5937 16.4527C12.5937 17.2464 12.3692 18.6799 11.9201 20.7532C11.5312 22.5229 11.3374 23.6919 11.3388 24.26C11.3388 25.0745 11.6347 25.4818 12.2265 25.4818C12.6462 25.4818 13.1205 25.2312 13.6829 24.7341C14.4859 23.9741 15.2375 23.1619 15.9325 22.3029C16.0304 22.1764 16.1554 22.0732 16.2985 22.0009C16.4415 21.9287 16.599 21.8891 16.7594 21.8852C16.8878 21.8835 17.0142 21.9166 17.1251 21.981C17.236 22.0454 17.3272 22.1386 17.3889 22.2507C17.5527 22.555 17.6296 22.8981 17.6114 23.2428C17.6114 24.056 17.4169 24.686 17.028 25.133C16.2171 26.1485 15.2629 27.042 14.1949 27.7855C13.1818 28.4801 11.9772 28.8449 10.747 28.8299C9.70615 28.8299 8.91988 28.5298 8.38825 27.9297C7.85662 27.3295 7.5936 26.4635 7.5992 25.3314C7.5992 24.7605 7.7391 23.7434 8.01891 22.28C8.28333 20.9989 8.41553 20.1147 8.41553 19.6274C8.41553 19.3016 8.30431 19.1387 8.07976 19.1387C7.81325 19.1387 7.4502 19.4812 6.96124 20.1621C6.38684 21.0133 5.89497 21.9168 5.49225 22.8606C4.98342 24.0009 4.57819 25.1843 4.28139 26.3966C4.05615 27.3532 3.79593 27.9993 3.50073 28.3349C3.20484 28.669 2.73895 28.8382 2.10519 28.8382C1.33712 28.8326 0.793598 28.4233 0.474618 27.6101Z" fill="white"/>
<path id="Vector_6" d="M17.2354 27.9296C16.3897 27.3331 15.7271 26.5146 15.3215 25.5653C14.8896 24.5771 14.6702 23.5099 14.6773 22.4323C14.652 21.0074 14.9504 19.5952 15.5503 18.3011C16.074 17.1618 16.8942 16.1826 17.9258 15.4647C18.9165 14.7865 20.0937 14.4297 21.2961 14.4434C22.3968 14.4134 23.4794 14.7275 24.3915 15.3415C25.2427 15.9357 25.9106 16.7545 26.32 17.7058C26.7519 18.694 26.9714 19.7611 26.9643 20.8387C26.9902 22.266 26.6865 23.6801 26.0766 24.9721C25.5417 26.113 24.7117 27.0919 23.6717 27.8084C22.6836 28.4825 21.5118 28.8389 20.314 28.8298C19.2179 28.8616 18.14 28.5464 17.2354 27.9296ZM22.4146 24.4061C22.8931 23.6542 23.133 22.557 23.1344 21.1144C23.1344 20.0005 22.9302 19.1567 22.5216 18.583C22.1131 18.0093 21.6235 17.7246 21.0527 17.7288C20.3182 17.7288 19.7103 18.0998 19.229 18.842C18.7478 19.5842 18.5078 20.687 18.5092 22.1504C18.5092 23.3103 18.7135 24.1645 19.122 24.7131C19.2897 24.9651 19.5172 25.172 19.7844 25.3155C20.0516 25.459 20.3503 25.5348 20.6539 25.536C21.3479 25.5388 21.9348 25.1622 22.4146 24.4061Z" fill="white"/>
<path id="Vector_7" d="M75.7772 15.2571C74.879 16.701 73.5716 17.8804 71.855 18.7952C70.1384 19.71 68.0958 20.2489 65.7272 20.4118L64.4093 27.7616C63.8973 30.5854 62.5081 31.998 60.2416 31.9994C59.0049 32.0027 57.7986 31.6183 56.7937 30.9008C55.743 30.1698 54.9036 29.0517 54.2754 27.5465C53.6473 26.0413 53.3276 24.1887 53.3164 21.9887C53.3164 17.8616 53.9851 14.3597 55.3226 11.4829C56.6601 8.60622 58.4579 6.44798 60.7159 5.00822C62.9448 3.5893 65.5411 2.8482 68.1867 2.87574C70.1062 2.87574 71.7354 3.21131 73.0743 3.88246C74.3296 4.47955 75.3832 5.42733 76.1067 6.61019C76.796 7.79061 77.148 9.13616 77.1245 10.5013C77.1376 12.1816 76.6703 13.831 75.7772 15.2571ZM72.5601 10.7749C72.5601 9.43261 72.1159 8.33957 71.2275 7.49576C70.3391 6.65196 68.9653 6.23006 67.106 6.23006C65.0915 6.19503 63.1342 6.89739 61.6057 8.20381C60.043 9.5266 58.8377 11.3618 57.9899 13.7094C57.1421 16.057 56.7181 18.7353 56.7181 21.7443C56.7031 22.874 56.8314 24.001 57.1001 25.0986C57.2829 25.9102 57.6159 26.6808 58.0822 27.3711C58.4788 27.9099 58.8629 28.1794 59.2301 28.1794C59.7394 28.1794 60.1276 27.4783 60.3948 26.0761L61.4063 20.3115C60.6089 20.1883 60.2626 20.1382 60.357 20.1591C59.7443 20.0567 59.3476 19.8687 59.163 19.5951C58.9697 19.2817 58.874 18.9183 58.8881 18.5508C58.8772 18.3566 58.9053 18.1621 58.9709 17.9789C59.0365 17.7956 59.1382 17.6272 59.27 17.4835C59.4078 17.3488 59.5722 17.244 59.7528 17.1757C59.9334 17.1074 60.1263 17.0771 60.3193 17.0867C60.4731 17.083 60.627 17.0934 60.7789 17.118C61.2678 17.1995 61.6476 17.2496 61.9121 17.2705C62.1793 15.6831 62.557 13.5583 63.0453 10.896C63.1691 10.2047 63.4482 9.71179 63.8847 9.4173C64.3431 9.11671 64.8826 8.96225 65.4313 8.97451C66.1071 8.97451 66.5925 9.10192 66.8877 9.35673C67.1829 9.61154 67.3305 10.0126 67.3305 10.5598C67.3362 10.8257 67.3158 11.0915 67.2697 11.3534L66.2603 17.2705C70.4602 16.7428 72.5601 14.5776 72.5601 10.7749Z" fill="white"/>
<path id="Vector_8" d="M92.7522 19.7106C92.9045 20.0238 92.9766 20.3697 92.9621 20.7173C92.9621 21.692 92.6655 22.2713 92.0723 22.4551C90.7679 22.896 89.4052 23.1424 88.0284 23.1861C87.6408 24.8946 86.8714 26.2619 85.72 27.2881C84.6679 28.2781 83.275 28.8296 81.8271 28.8295C80.7113 28.864 79.6119 28.5547 78.6793 27.944C77.8143 27.3592 77.1298 26.5463 76.7025 25.5964C76.2488 24.6002 76.0189 23.5175 76.0288 22.4238C76.0032 20.9972 76.3069 19.5838 76.9165 18.2925C77.4578 17.1418 78.3055 16.1608 79.3676 15.4561C80.3939 14.7801 81.5996 14.4245 82.8303 14.4348C84.3832 14.4348 85.6346 14.9681 86.5846 16.0347C87.5532 17.1392 88.1414 18.5232 88.2634 19.9842C89.4239 19.8891 90.5727 19.6849 91.6945 19.3744C91.8316 19.3382 91.9725 19.3179 92.1142 19.3138C92.2484 19.3081 92.3811 19.343 92.495 19.4138C92.6089 19.4847 92.6985 19.5881 92.7522 19.7106ZM83.7893 24.8027C84.2692 24.275 84.5909 23.5091 84.7546 22.5052C84.1293 22.0868 83.6273 21.51 83.3003 20.8343C82.9658 20.1535 82.7928 19.4054 82.7946 18.6475C82.7951 18.3196 82.826 17.9924 82.8869 17.6701H82.7337C81.9153 17.6701 81.236 18.062 80.696 18.8459C80.156 19.6299 79.8853 20.7327 79.8839 22.1543C79.8839 23.2682 80.1035 24.1225 80.5428 24.7171C80.9821 25.3116 81.4977 25.6061 82.0895 25.6005C82.4143 25.5998 82.7349 25.5279 83.0287 25.39C83.3224 25.2521 83.5821 25.0516 83.7893 24.8027Z" fill="white"/>
<path id="Vector_9" d="M108.671 22.2419C108.837 22.5483 108.916 22.8945 108.897 23.2424C108.897 24.0555 108.703 24.6856 108.316 25.1326C107.512 26.1459 106.579 27.0503 105.539 27.8227C104.558 28.5085 103.381 28.8615 102.182 28.8294C100.609 28.8294 99.3432 28.3818 98.3834 27.4864C97.4237 26.5911 96.9438 25.402 96.9438 23.9191C96.9438 23.1254 97.3524 22.5559 98.1694 22.2106C99.0676 21.8249 99.7104 21.4134 100.098 20.9762C100.488 20.5345 100.697 19.9623 100.681 19.3742C100.703 19.0816 100.621 18.7906 100.451 18.5513C100.384 18.465 100.298 18.3952 100.2 18.3474C100.101 18.2995 99.9933 18.275 99.8839 18.2756C99.3313 18.2756 98.7234 18.6725 98.0603 19.4661C97.3092 20.4022 96.6861 21.4332 96.2073 22.5322C95.6376 23.7725 95.1865 25.0634 94.86 26.3878C94.6333 27.3444 94.3724 27.9905 94.0772 28.3261C93.7813 28.6602 93.3154 28.8294 92.6838 28.8294C92.0521 28.8294 91.5841 28.5997 91.2882 28.1423C90.9924 27.6849 90.793 26.9789 90.6923 26.0223C90.5915 25.0657 90.5391 23.6643 90.5391 21.8137C90.5538 18.5278 90.877 15.2505 91.5044 12.0244C92.1465 8.63108 93.0965 5.77664 94.3542 3.46105C95.612 1.14547 97.118 -0.00814337 98.8724 0.000211109C99.324 -0.0054278 99.7697 0.101981 100.169 0.312561C100.568 0.52314 100.907 0.83014 101.156 1.20535C101.739 2.01016 102.03 3.05447 102.029 4.33828C102.029 6.39208 101.426 8.52178 100.222 10.7274C99.0172 12.9329 97.0586 15.5089 94.3458 18.4553C94.2857 19.5121 94.2549 20.6003 94.2535 21.7198C95.2328 19.1772 96.3569 17.3316 97.6259 16.1828C98.8948 15.0341 100.078 14.4632 101.177 14.4702C101.64 14.4526 102.101 14.5372 102.528 14.7177C102.954 14.8982 103.336 15.1703 103.645 15.5145C104.272 16.2185 104.606 17.1344 104.578 18.0751C104.587 19.161 104.29 20.2277 103.72 21.1537C103.149 22.0894 102.17 22.9249 100.782 23.6601C100.848 24.1832 101.117 24.66 101.531 24.9884C101.963 25.3273 102.499 25.5054 103.049 25.4918C103.73 25.4737 104.382 25.2136 104.887 24.7587C105.731 24.0057 106.511 23.1841 107.218 22.3025C107.316 22.1759 107.441 22.0728 107.584 22.0005C107.727 21.9282 107.885 21.8887 108.045 21.8848C108.172 21.8832 108.297 21.9155 108.407 21.9784C108.517 22.0412 108.608 22.1322 108.671 22.2419ZM97.011 4.59935C96.458 5.97095 96.022 7.38647 95.7078 8.8309C95.2647 10.7487 94.9222 12.6882 94.6816 14.6414C95.9417 13.1705 97.0002 11.5397 97.8294 9.79166C98.6563 8.04418 99.0697 6.45823 99.0697 5.03379C99.0933 4.52736 99.0221 4.02097 98.8598 3.54042C98.7171 3.1958 98.5115 3.02245 98.247 3.02245C97.8735 3.02663 97.4615 3.55226 97.011 4.59935Z" fill="white"/>
<path id="Vector_10" d="M120.714 22.2421C120.883 22.5501 120.962 22.8986 120.943 23.2488C120.943 24.062 120.749 24.692 120.361 25.139C119.606 26.0538 118.539 26.8976 117.159 27.6704C115.81 28.4354 114.284 28.8351 112.731 28.8296C110.586 28.8296 108.922 28.2496 107.737 27.0898C106.552 25.9299 105.96 24.3446 105.961 22.334C105.951 20.9765 106.255 19.6348 106.851 18.4136C107.402 17.2522 108.254 16.2575 109.319 15.5314C110.371 14.8229 111.616 14.4526 112.886 14.4703C114.071 14.4703 115.021 14.8184 115.736 15.5146C116.451 16.2108 116.809 17.1612 116.809 18.3656C116.818 19.041 116.688 19.7111 116.427 20.3344C116.165 20.9577 115.778 21.521 115.289 21.9894C114.279 22.9933 112.569 23.7911 110.158 24.3829C110.668 25.3186 111.638 25.7858 113.069 25.7844C113.988 25.7844 115.037 25.4648 116.217 24.8257C117.385 24.192 118.42 23.3412 119.266 22.3194C119.364 22.1926 119.489 22.0892 119.633 22.0169C119.776 21.9446 119.934 21.9052 120.095 21.9016C120.219 21.8993 120.342 21.9295 120.45 21.9893C120.559 22.0491 120.65 22.1363 120.714 22.2421ZM110.448 18.7645C109.904 19.7322 109.634 20.8288 109.667 21.9371V21.9894C110.872 21.7109 111.822 21.2841 112.517 20.709C113.212 20.134 113.562 19.4733 113.566 18.7269C113.582 18.3867 113.467 18.0534 113.243 17.7954C113.132 17.6775 112.996 17.5851 112.845 17.5245C112.695 17.4639 112.533 17.4366 112.37 17.4445C111.611 17.4501 110.97 17.8901 110.448 18.7645Z" fill="white"/>
<path id="Vector_11" d="M131.982 19.1156C132.138 19.2686 132.26 19.4517 132.342 19.6536C132.423 19.8555 132.462 20.0719 132.457 20.2894C132.451 20.5831 132.389 20.873 132.274 21.1436C131.964 21.8664 131.493 22.5093 130.895 23.0234C130.358 23.5102 129.659 23.7817 128.933 23.7857C128.661 23.7903 128.392 23.7385 128.141 23.6335C127.891 23.5284 127.665 23.3726 127.479 23.1759C127.274 22.9552 127.115 22.6958 127.013 22.4132C126.91 22.1305 126.865 21.8302 126.881 21.53C126.881 21.1443 126.901 20.7266 126.942 20.2769C126.974 20.0547 126.995 19.8308 127.003 19.6064C127.013 19.4757 126.974 19.3458 126.895 19.2409C126.864 19.2023 126.824 19.1712 126.779 19.1499C126.734 19.1286 126.685 19.1176 126.635 19.1177C126.35 19.1177 125.962 19.4602 125.471 20.1411C124.889 20.988 124.397 21.8923 124.002 22.8396C123.502 23.9822 123.102 25.1652 122.805 26.3756C122.582 27.3503 122.326 28.0013 122.039 28.3285C121.753 28.6557 121.283 28.8186 120.629 28.8172C119.853 28.8172 119.306 28.4106 118.99 27.5975C118.674 26.7843 118.516 25.4831 118.516 23.6938C118.503 21.1396 118.885 18.5985 119.649 16.1602C119.787 15.6351 120.108 15.1756 120.554 14.8632C120.973 14.5847 121.56 14.4454 122.314 14.4454C122.609 14.4231 122.904 14.4756 123.173 14.5979C123.261 14.6645 123.331 14.7533 123.374 14.8553C123.417 14.9573 123.432 15.0688 123.418 15.1786C123.418 15.5044 123.265 16.2361 122.959 17.3737C122.754 18.1883 122.591 18.8998 122.468 19.5083C122.328 20.2601 122.228 21.0185 122.167 21.7807C122.843 20.0318 123.599 18.6081 124.436 17.5094C125.273 16.4108 126.09 15.6283 126.887 15.1618C127.685 14.694 128.41 14.4601 129.063 14.4601C129.313 14.4442 129.563 14.4808 129.798 14.5675C130.033 14.6542 130.246 14.7891 130.425 14.9634C130.741 15.3004 130.9 15.7933 130.902 16.4422C130.851 17.1855 130.738 17.9232 130.564 18.6477H130.841C131.053 18.6444 131.264 18.6841 131.46 18.7646C131.656 18.845 131.834 18.9645 131.982 19.1156Z" fill="white"/>
</g>
</svg>
